<svg width="26" height="29" viewBox="0 0 26 29" fill="none" xmlns="http://www.w3.org/2000/svg">
<g clip-path="url(#clip0)">
<path d="M23.4571 14.44H2.54286C1.68571 14.44 1 13.7612 1 12.9127V9.48482C1 8.63634 1.68571 7.95755 2.54286 7.95755H23.4914C24.3486 7.95755 25.0343 8.63634 25.0343 9.48482V12.9127C25 13.7272 24.3143 14.44 23.4571 14.44ZM2.54286 9.24725C2.40571 9.24725 2.33714 9.34907 2.33714 9.45088V12.8788C2.33714 13.0145 2.44 13.0824 2.54286 13.0824H23.4914C23.6286 13.0824 23.6971 12.9806 23.6971 12.8788V9.48482C23.6971 9.34907 23.5943 9.28119 23.4914 9.28119H2.54286V9.24725Z" fill="#FF7905"/>
<path d="M21.5714 29.0002H4.42854C3.5714 29.0002 2.88568 28.3214 2.88568 27.4729V13.965C2.88568 13.5917 3.19425 13.3202 3.53711 13.3202C3.91425 13.3202 4.18854 13.6256 4.18854 13.965V27.5068C4.18854 27.6426 4.2914 27.7105 4.39425 27.7105H21.5371C21.6743 27.7105 21.7428 27.6086 21.7428 27.5068V13.965C21.7428 13.5917 22.0514 13.3202 22.3943 13.3202C22.7714 13.3202 23.0457 13.6256 23.0457 13.965V27.5068C23.1143 28.3214 22.4285 29.0002 21.5714 29.0002Z" fill="#FF7905"/>
<path d="M18.2114 9.07775C18.2114 9.07775 20.4057 9.3832 22.0514 7.68623C23.6971 5.98926 23.7657 4.97108 23.1142 4.29229C22.4628 3.61351 22.12 2.90078 22.1542 2.32381C22.1885 1.74684 22.2914 1.10199 20.44 1.00017C18.5885 0.898354 16.1885 1.84866 13.8228 5.41229H13H12.1428C9.81138 1.84866 7.3771 0.898354 5.52567 1.00017C3.67424 1.10199 3.7771 1.74684 3.81138 2.32381C3.84567 2.90078 3.50281 3.61351 2.85138 4.29229C2.19996 4.97108 2.23424 5.98926 3.91424 7.68623C5.55996 9.3832 7.75424 9.07775 7.75424 9.07775C4.70281 10.1299 3.19424 14.1687 3.19424 14.1687L6.96567 16.8499C8.67996 11.6911 11.4228 9.34926 11.4228 9.34926H13H14.5428C14.5428 9.34926 17.2857 11.725 19 16.8499L22.7714 14.1687C22.7714 14.1687 21.2628 10.1299 18.2114 9.07775ZM10.6 7.4826C10.6 7.4826 7.03424 5.34441 3.87996 5.10684C3.87996 5.10684 4.87424 4.19048 4.90853 2.56138C4.90853 2.56138 7.47996 1.27169 11.1142 5.78563C11.1485 5.78563 10.4285 6.46441 10.6 7.4826ZM14.2685 7.88987H13H11.7314C11.2514 6.97351 11.8685 6.3626 11.8685 6.3626H13H14.0971C14.0971 6.3626 14.7485 6.97351 14.2685 7.88987ZM14.8514 5.78563C18.52 1.30563 21.0914 2.59532 21.0914 2.59532C21.1257 4.22441 22.12 5.14078 22.12 5.14078C18.9657 5.34441 15.4 7.51654 15.4 7.51654C15.5714 6.46441 14.8514 5.78563 14.8514 5.78563Z" fill="#FF7905"/>
<path d="M14.7488 13.9312H11.2173V28.1518H14.7488V13.9312Z" fill="#FF7905"/>
<path d="M14.7488 8.94229H11.2173V13.7277H14.7488V8.94229Z" fill="#FF7905"/>
</g>
<defs>
<clipPath id="clip0">
<rect width="24" height="28" fill="white" transform="translate(1 1)"/>
</clipPath>
</defs>
</svg>
