<svg width="274" height="39" viewBox="0 0 274 39" fill="none" xmlns="http://www.w3.org/2000/svg">
<path d="M65.4341 34.7836C66.0592 35.0459 66.5549 35.6915 66.5549 36.4986C66.5549 37.8504 65.6281 38.8591 63.559 38.8591H59.3778V30.7283H63.4513C65.3695 30.7283 66.2962 31.7169 66.2962 32.8871C66.2962 33.6134 65.9514 34.2187 65.4126 34.5012V34.7836H65.4341ZM63.2357 33.9564C64.0548 33.9564 64.4427 33.6538 64.4427 33.0485C64.4427 32.4432 64.0332 32.1406 63.2142 32.1406H61.2098V33.9564H63.2357ZM63.3004 37.4065C64.2056 37.4065 64.7013 37.0837 64.7013 36.3977C64.7013 35.7117 64.2487 35.3687 63.322 35.3687H61.2098V37.4065H63.3004Z" fill="#FF5F04"/>
<path d="M75.3914 36.66H72.0939L71.3826 38.8591H69.5938L72.3525 30.7283H75.1544L77.9347 38.8591H76.0811L75.3914 36.66ZM72.5465 35.1871H74.8957L73.9905 32.3625H73.4517L72.5465 35.1871Z" fill="#FF5F04"/>
<path d="M81.3399 30.7283H84.1202L85.5427 33.9968H85.866L87.2669 30.7283H90.0688V38.8591H88.3661V32.8064H88.0428L86.5772 36.0749H84.7668L83.3228 32.8064H82.9995V38.8591H81.3184V30.7283H81.3399Z" fill="#FF5F04"/>
<path d="M105.609 32.2213H102.914V38.8591H101.104V32.2213H98.4099V30.7283H105.609V32.2213Z" fill="#FF5F04"/>
<path d="M116.967 34.8031C116.967 37.1838 115.501 39.0198 112.742 39.0198C109.984 39.0198 108.518 37.204 108.518 34.8031C108.518 32.4021 109.984 30.5863 112.742 30.5863C115.501 30.5863 116.967 32.4021 116.967 34.8031ZM115.113 34.8031C115.113 33.31 114.38 32.0995 112.742 32.0995C111.147 32.0995 110.372 33.2899 110.372 34.8031C110.372 36.3163 111.147 37.5066 112.742 37.5066C114.359 37.4865 115.113 36.2961 115.113 34.8031Z" fill="#FF5F04"/>
<path d="M122.204 30.7283V33.0485C122.204 33.7143 122.226 34.4003 124.014 34.4003C124.51 34.4003 125.027 34.3398 125.502 34.2187V30.7283H127.312V38.8591H125.502V35.7117C124.92 35.8328 124.187 35.9135 123.562 35.9135C120.501 35.9135 120.372 34.602 120.372 33.3108V30.7283H122.204Z" fill="#FF5F04"/>
<path d="M138.972 30.7283V38.8591H137.162V35.4494H133.325V38.8591H131.515V30.7283H133.325V33.8959H137.162V30.7283H138.972Z" fill="#FF5F04"/>
<path d="M151.214 34.8031C151.214 37.1838 149.748 39.0198 146.99 39.0198C144.231 39.0198 142.765 37.204 142.765 34.8031C142.765 32.4021 144.231 30.5863 146.99 30.5863C149.727 30.5863 151.214 32.4021 151.214 34.8031ZM149.339 34.8031C149.339 33.31 148.606 32.0995 146.968 32.0995C145.373 32.0995 144.597 33.2899 144.597 34.8031C144.597 36.3163 145.373 37.5066 146.968 37.5066C148.606 37.4865 149.339 36.2961 149.339 34.8031Z" fill="#FF5F04"/>
<path d="M167.917 30.7283V38.8591H166.107V32.2415H162.357V38.8591H160.568V30.7283H167.917Z" fill="#FF5F04"/>
<path d="M180.16 34.8031C180.16 37.1838 178.694 39.0198 175.935 39.0198C173.176 39.0198 171.711 37.204 171.711 34.8031C171.711 32.4021 173.176 30.5863 175.935 30.5863C178.694 30.5863 180.16 32.4021 180.16 34.8031ZM178.306 34.8031C178.306 33.31 177.573 32.0995 175.935 32.0995C174.34 32.0995 173.564 33.2899 173.564 34.8031C173.564 36.3163 174.34 37.5066 175.935 37.5066C177.573 37.4865 178.306 36.2961 178.306 34.8031Z" fill="#FF5F04"/>
<path d="M191.41 30.7283V38.8591H189.599V35.4494H185.763V38.8591H183.953V30.7283H185.763V33.8959H189.599V30.7283H191.41Z" fill="#FF5F04"/>
<path d="M199.557 30.7276C201.54 30.7276 202.682 31.6758 202.682 33.3101C202.682 34.9645 201.54 35.933 199.557 35.933H197.402V38.8383H195.591V30.7074H199.557V30.7276ZM199.32 34.4601C200.441 34.4601 200.85 34.0566 200.85 33.3504C200.85 32.6241 200.441 32.2408 199.32 32.2408H197.423V34.4803H199.32V34.4601Z" fill="#FF5F04"/>
<path d="M210.764 36.66H207.467L206.756 38.8591H204.967L207.725 30.7283H210.527L213.308 38.8591H211.476L210.764 36.66ZM207.919 35.1871H210.269L209.363 32.3625H208.825L207.919 35.1871Z" fill="#FF5F04"/>
<path d="M222.748 34.7836C223.373 35.0459 223.868 35.6915 223.868 36.4986C223.868 37.8504 222.942 38.8591 220.872 38.8591H216.691V30.7283H220.765C222.683 30.7283 223.61 31.7169 223.61 32.8871C223.61 33.6134 223.265 34.2187 222.726 34.5012V34.7836H222.748ZM220.571 33.9564C221.39 33.9564 221.778 33.6538 221.778 33.0485C221.778 32.4432 221.368 32.1406 220.549 32.1406H218.523V33.9564H220.571ZM220.614 37.4065C221.519 37.4065 222.015 37.0837 222.015 36.3977C222.015 35.7117 221.562 35.3687 220.635 35.3687H218.502V37.4065H220.614Z" fill="#FF5F04"/>
<path d="M229.386 30.7283V36.3977H229.709L232.834 30.7283H235.27V38.8591H233.567V33.0687H233.244L230.054 38.8591H227.705V30.7283H229.386Z" fill="#FF5F04"/>
<path d="M245.852 32.2213H243.158V38.8591H241.348V32.2213H238.654V30.7283H245.852V32.2213Z" fill="#FF5F04"/>
<path d="M256.521 36.256C256.262 37.8701 254.926 38.9999 252.9 38.9999C250.249 38.9999 248.74 37.285 248.74 34.7832C248.74 32.2814 250.249 30.5664 252.9 30.5664C254.818 30.5664 256.154 31.5954 256.435 33.0884H254.538C254.322 32.4226 253.784 32.0796 252.9 32.0796C251.348 32.0796 250.594 33.27 250.594 34.7832C250.594 36.2964 251.327 37.4867 252.9 37.4867C253.827 37.4867 254.452 37.0227 254.646 36.256H256.521Z" fill="#FF5F04"/>
<path d="M267.06 30.7283V38.8591H265.249V35.7924H262.9L261.736 38.8591H259.904L261.198 35.4292C260.379 35.0257 259.904 34.259 259.904 33.2503C259.904 31.6564 261.025 30.7283 262.965 30.7283H267.06ZM265.249 32.2213H263.418C262.211 32.2213 261.78 32.5239 261.78 33.2704C261.78 33.9564 262.167 34.3398 263.245 34.3398H265.271V32.2213H265.249Z" fill="#FF5F04"/>
<path d="M271.414 38.8591V37.124H273.267V38.8591H271.414ZM273.181 30.7283V34.0371L272.858 36.4179H271.78L271.457 34.0371V30.7283H273.181Z" fill="#FF5F04"/>
<path d="M20.8414 4.27716C23.514 3.34907 25.7555 2.27975 28.1478 1.8157C34.4197 0.564799 41.1872 5.14473 42.3295 11.0966C43.1054 15.2125 42.0062 18.8038 38.9242 21.7495C33.6653 26.7531 28.3202 31.676 22.9752 36.6191C21.7467 37.7691 20.7983 37.7691 19.5914 36.6393C14.2032 31.6155 8.72881 26.6522 3.51305 21.4872C-0.258682 17.7345 -0.969922 13.1949 1.27156 8.53428C3.49149 3.89382 7.65117 1.63412 13.0178 1.59377C16.1645 1.55342 18.9232 2.7438 20.8414 4.27716ZM21.0139 32.8462C21.3803 32.7252 21.488 32.705 21.5527 32.6445C26.5098 28.004 31.51 23.3636 36.4241 18.6827C37.825 17.3511 38.45 15.5958 38.5362 13.7598C38.7087 10.4712 36.5534 7.3439 33.342 6.03247C29.8936 4.64033 26.3158 5.34649 23.4493 8.02988C21.7036 9.66413 20.9923 9.6843 19.2681 8.09041C17.5439 6.45616 15.5179 5.44736 13.0609 5.36666C9.59091 5.24561 6.3149 7.16232 4.89242 10.108C3.40528 13.2151 4.07342 16.7055 6.78906 19.3082C9.93576 22.3346 13.1471 25.2803 16.3154 28.2865C17.9318 29.7997 19.5052 31.3734 21.0139 32.8462Z" fill="#FF5F04"/>
<path d="M128.433 5.14466C132.226 4.84202 132.226 4.84202 133.886 7.82805C134.899 9.64388 135.911 11.4799 136.924 13.2957C136.968 13.3764 137.075 13.4168 137.248 13.5378C138.519 11.258 139.899 9.01843 141.041 6.6982C141.688 5.38677 142.485 4.82185 143.994 5.06396C144.533 5.14466 145.114 5.08413 145.783 5.08413C145.783 10.915 145.783 16.6046 145.783 22.395C144.791 22.395 143.864 22.395 142.744 22.395C142.744 20.3775 142.744 18.38 142.744 16.4028C142.744 14.3852 142.744 12.3878 142.744 10.3702C142.657 10.3299 142.571 10.2895 142.485 10.2492C141.925 11.2176 141.343 12.2062 140.782 13.1747C140.05 14.4659 139.381 15.7975 138.541 17.0484C138.239 17.4923 137.549 17.8958 137.032 17.9362C136.58 17.9563 135.911 17.4923 135.674 17.0686C134.317 14.8089 133.067 12.5089 131.515 10.2693C131.515 14.2843 131.515 18.2792 131.515 22.3749C130.416 22.3749 129.489 22.3749 128.454 22.3749C128.433 16.6651 128.433 10.9553 128.433 5.14466Z" fill="#FF5F04"/>
<path d="M263.31 6.73832C263.31 5.97164 263.31 5.30583 263.31 4.55933C264.344 4.55933 265.249 4.55933 266.349 4.55933C266.392 5.24531 266.413 5.95146 266.456 6.71815C268.806 6.98043 271.176 7.30325 272.577 9.21996C273.332 10.2489 273.827 11.6007 273.935 12.8516C274.302 17.1693 273.03 19.7518 266.478 20.7606C266.435 21.4264 266.413 22.0922 266.37 22.8992C265.422 22.8992 264.452 22.8992 263.396 22.8992C263.353 22.2334 263.31 21.5676 263.267 20.7606C260.788 20.2763 258.116 19.9737 256.607 17.6131C255.465 15.8377 255.508 13.8806 255.766 11.9235C256.154 8.91732 258.719 7.14184 263.31 6.73832ZM263.245 9.36119C260.077 9.70418 258.762 11.1367 258.891 13.9411C259.021 16.564 260.465 17.9158 263.245 17.9359C263.245 15.1113 263.245 12.2867 263.245 9.36119ZM266.543 9.44189C266.543 12.3674 266.543 15.1718 266.543 17.9965C269.538 17.6938 270.789 16.342 270.702 13.5981C270.638 10.8542 269.366 9.56295 266.543 9.44189Z" fill="#FF5F04"/>
<path d="M95.845 5.14465C95.845 9.26053 95.845 13.2957 95.845 17.3511C95.9312 17.3712 96.0389 17.3914 96.1251 17.4318C97.1812 15.5554 98.2373 13.679 99.2718 11.8027C100.263 10.0272 101.319 8.27191 102.203 6.45608C102.742 5.36658 103.453 4.88236 104.725 5.04377C105.436 5.14465 106.19 5.06395 107.031 5.06395C107.031 10.8342 107.031 16.544 107.031 22.3345C106.126 22.3345 105.199 22.3345 104.121 22.3345C104.121 18.0774 104.121 13.7799 104.121 9.50264C104.013 9.48246 103.927 9.44211 103.819 9.42194C103.561 9.80528 103.302 10.1684 103.065 10.572C101.19 13.901 99.2287 17.1896 97.5045 20.5994C96.7717 22.052 95.8881 22.738 94.1854 22.4556C93.7759 22.395 93.3448 22.4354 92.806 22.4354C92.806 16.6651 92.806 10.9553 92.806 5.14465C93.7543 5.14465 94.6811 5.14465 95.845 5.14465Z" fill="#FF5F04"/>
<path d="M165.611 22.4354C165.611 16.5239 165.611 10.8545 165.611 5.12451C169.728 5.12451 173.737 5.12451 177.853 5.12451C177.875 5.60873 177.896 6.0526 177.939 6.4763C178.047 7.36404 177.638 7.68685 176.689 7.66667C174.642 7.60615 172.594 7.6465 170.547 7.6465C170.03 7.6465 169.534 7.68685 168.93 7.70703C168.93 9.09916 168.93 10.3904 168.93 11.7624C170.525 11.8834 172.077 11.9641 173.607 12.1054C177.336 12.4484 179.189 14.1633 179.189 17.2301C179.189 20.1757 177.228 22.0521 173.543 22.3547C171.409 22.5161 169.254 22.3951 167.098 22.4153C166.646 22.4354 166.193 22.4354 165.611 22.4354ZM168.93 19.9336C170.741 19.7722 172.465 19.7722 174.125 19.4494C175.396 19.2073 175.892 18.138 175.784 16.9476C175.698 15.7976 175.051 14.9703 173.801 14.8089C172.228 14.587 170.611 14.5265 168.93 14.3852C168.93 16.2818 168.93 17.916 168.93 19.9336Z" fill="#FF5F04"/>
<path d="M196.755 19.9333C198.651 20.1149 199.578 19.7114 199.966 17.9561C200.483 15.6358 200.764 13.2349 200.958 10.8541C201.109 8.99797 200.979 7.14179 200.979 5.16455C204.751 5.16455 208.393 5.16455 212.165 5.16455C212.165 10.834 212.165 16.5437 212.165 22.3342C211.195 22.3342 210.225 22.3342 209.062 22.3342C209.062 17.5324 209.062 12.6902 209.062 7.76724C207.424 7.76724 205.979 7.76724 204.492 7.76724C204.255 10.3699 204.147 12.9524 203.76 15.5148C203.522 17.0481 203.07 18.5815 202.402 19.9938C201.13 22.6772 199.061 23.3228 196 22.193C196.108 21.8097 196.173 21.386 196.302 20.9824C196.432 20.6395 196.604 20.2763 196.755 19.9333Z" fill="#FF5F04"/>
<path d="M59.6579 5.10388C63.4943 5.10388 67.0936 5.10388 70.8438 5.10388C70.8438 10.8137 70.8438 16.5234 70.8438 22.3341C69.8523 22.3341 68.8394 22.3341 67.6324 22.3341C67.6324 17.5121 67.6324 12.6698 67.6324 7.7671C66.016 7.7671 64.5719 7.7671 63.0632 7.7671C62.8693 10.2891 62.8046 12.7909 62.4598 15.2524C62.2227 16.8664 61.7485 18.5209 61.0588 20.0139C59.8088 22.6973 57.7182 23.3429 54.593 22.1727C54.8517 21.4262 55.1318 20.6595 55.3905 19.913C57.2224 20.1148 58.1708 19.7314 58.5803 18.0568C59.1191 15.8778 59.4424 13.6383 59.6364 11.4189C59.7872 9.38117 59.6579 7.32323 59.6579 5.10388Z" fill="#FF5F04"/>
<path d="M73.4733 22.4353C75.5208 16.7659 77.4605 11.3184 79.4865 5.8911C79.6158 5.52793 80.2408 5.12442 80.6719 5.08406C83.8617 4.86213 83.8617 4.88231 84.8747 7.68675C86.6204 12.529 88.3878 17.3712 90.1766 22.2941C89.8964 22.3546 89.7025 22.4152 89.5085 22.4152C86.8575 22.4959 86.7929 22.516 86.0385 20.1151C85.6506 18.9046 85.0902 18.2387 83.6462 18.501C83.1935 18.5817 82.6978 18.501 82.2237 18.5212C80.9736 18.5414 79.4434 18.158 78.5382 18.6826C77.676 19.187 77.5467 20.68 76.9648 21.6888C76.7708 22.0116 76.2751 22.3345 75.8872 22.395C75.1759 22.516 74.4431 22.4353 73.4733 22.4353ZM81.7926 8.25168C80.8443 10.9149 80.0037 13.2351 79.1416 15.6159C80.909 15.6159 82.5039 15.6159 84.3358 15.6159C83.5168 13.215 82.7194 10.9351 81.7926 8.25168Z" fill="#FF5F04"/>
<path d="M194.32 5.14478C194.32 6.03251 194.32 6.77902 194.32 7.66676C191.539 7.66676 188.78 7.66676 185.957 7.66676C185.957 9.11942 185.957 10.4309 185.957 11.944C188.263 11.944 190.591 11.944 193.005 11.944C193.005 12.9528 193.005 13.7599 193.005 14.7485C190.677 14.7485 188.349 14.7485 185.936 14.7485C185.936 16.4231 185.936 17.9161 185.936 19.6109C188.694 19.6109 191.431 19.6109 194.276 19.6109C194.276 20.6197 194.276 21.4267 194.276 22.3548C190.418 22.3548 186.582 22.3548 182.595 22.3548C182.595 16.645 182.595 10.9554 182.595 5.16495C186.496 5.14478 190.354 5.14478 194.32 5.14478Z" fill="#FF5F04"/>
<path d="M124.618 5.06365C123.821 8.25144 123.131 11.298 120.458 13.5173C123.907 15.5753 124.144 19.1061 125.2 22.3746C123.993 22.3746 122.958 22.3746 121.816 22.3746C121.407 21.0833 121.04 19.7719 120.588 18.4806C119.424 15.2323 118.605 14.7683 114.768 15.1112C114.768 17.4718 114.768 19.8526 114.768 22.3342C113.648 22.3342 112.678 22.3342 111.579 22.3342C111.579 16.6244 111.579 10.9348 111.579 5.14436C112.57 5.14436 113.54 5.14436 114.704 5.14436C114.704 7.48476 114.704 9.80499 114.704 12.105C117.937 12.5893 118.734 12.2059 119.79 9.6234C120.178 8.67514 120.566 7.68652 120.76 6.6979C121.019 5.40664 121.622 4.80137 123.066 5.06365C123.519 5.12418 123.993 5.06365 124.618 5.06365Z" fill="#FF5F04"/>
<path d="M150.309 5.10388C154.188 5.10388 157.938 5.10388 161.818 5.10388C161.818 5.93109 161.818 6.71795 161.818 7.6864C159.081 7.6864 156.322 7.6864 153.498 7.6864C153.498 9.13906 153.498 10.4505 153.498 11.9435C155.869 11.9435 158.197 11.9435 160.589 11.9435C160.589 12.9523 160.589 13.7593 160.589 14.748C158.24 14.748 155.912 14.748 153.498 14.748C153.498 16.4226 153.498 17.9156 153.498 19.6103C156.279 19.6103 159.016 19.6103 161.839 19.6103C161.839 20.6191 161.839 21.4262 161.839 22.3543C158.046 22.3543 154.231 22.3543 150.287 22.3543C150.309 16.6445 150.309 10.9549 150.309 5.10388Z" fill="#FF5F04"/>
<path d="M243.762 16.8263C243.762 18.7834 243.762 20.5387 243.762 22.3545C242.705 22.3545 241.8 22.3545 240.744 22.3545C240.744 16.6649 240.744 10.9551 240.744 5.12432C243.481 5.12432 246.283 4.86203 248.977 5.18484C252.49 5.60854 254.215 8.63492 253.439 12.3473C252.835 15.2324 250.982 16.7053 247.749 16.8062C246.499 16.8667 245.249 16.8263 243.762 16.8263ZM243.869 7.72701C243.869 9.92618 243.869 12.0043 243.869 14.2035C245.938 14.0622 248.309 14.7482 249.538 12.9324C250.184 11.9639 250.163 9.98671 249.516 8.97791C248.288 7.0612 245.917 7.82789 243.869 7.72701Z" fill="#FF5F04"/>
<path d="M219.859 5.14478C219.859 7.24307 219.859 9.24048 219.859 11.2984C221.39 11.3791 222.769 11.48 224.17 11.5405C227.877 11.7019 229.838 13.4371 229.903 16.6248C229.989 20.0951 228.093 22.153 224.321 22.3951C221.821 22.5566 219.321 22.4153 216.691 22.4153C216.691 16.6248 216.691 10.9353 216.691 5.14478C217.683 5.14478 218.652 5.14478 219.859 5.14478ZM219.903 19.9135C221.562 19.7723 223.071 19.7319 224.536 19.4696C225.959 19.2074 226.498 18.1784 226.476 16.8468C226.476 15.5757 226.023 14.5467 224.644 14.3248C223.092 14.1029 221.497 14.1432 219.903 14.0827C219.903 16.1205 219.903 17.8556 219.903 19.9135Z" fill="#FF5F04"/>
<path d="M95.6509 0.0601911C96.8363 0.100543 98.0863 -0.484558 98.8407 1.19004C99.4226 2.50147 101.147 1.87602 101.966 0.080367C102.828 0.080367 103.69 0.080367 104.574 0.080367C104.574 2.23919 102.871 3.42957 99.983 3.40939C97.1811 3.36904 95.5431 2.13831 95.6509 0.0601911Z" fill="#FF5F04"/>
<path d="M234.386 19.1467C235.873 19.1266 236.563 19.5503 236.563 20.8617C236.584 22.1731 235.808 22.6372 234.645 22.6574C233.459 22.6574 232.683 22.1731 232.683 20.8819C232.705 19.631 233.33 19.0862 234.386 19.1467Z" fill="#FF5F04"/>
<path d="M5.81909 13.6988C5.81909 8.6347 11.703 5.32585 16.423 7.74696C17.9317 8.51364 18.4274 9.52244 17.8671 10.5716C17.2636 11.6611 16.2075 11.8427 14.6342 11.1365C12.9962 10.4102 11.703 10.6321 10.5822 11.883C9.59082 12.9725 9.59082 14.2638 10.6469 15.6357C11.4228 16.6445 11.5521 17.613 10.5176 18.5007C9.63393 19.2472 8.34076 19.1262 7.54331 17.9761C6.65965 16.7252 5.81909 14.6875 5.81909 13.6988Z" fill="#FF5F04"/>
</svg>
