<svg width="30" height="25" viewBox="0 0 30 25" fill="none" xmlns="http://www.w3.org/2000/svg">
<path d="M25.8048 0.62384C24.8587 0.62384 23.9694 1.00916 23.3002 1.7088L10.194 15.4296L6.70085 11.7789C6.03208 11.0797 5.14285 10.6946 4.19701 10.6946C3.251 10.6946 2.36178 11.0797 1.69285 11.7787C1.02407 12.4777 0.655884 13.4072 0.655884 14.3958C0.655884 15.3843 1.02407 16.3138 1.69285 17.0126L7.69063 23.2815C8.35941 23.9806 9.24863 24.3658 10.1946 24.3658C11.1402 24.3658 12.0297 23.9805 12.6993 23.2808L28.3088 6.94234C29.6892 5.49906 29.6891 3.15095 28.3088 1.70767C27.64 1.00883 26.7507 0.62384 25.8048 0.62384Z" fill="#FFC804"/>
</svg>
